<svg width="46" height="47" viewBox="0 0 46 47" fill="none" xmlns="http://www.w3.org/2000/svg">
<path d="M28.4032 2.71507C17.816 11.3739 12.4858 22.8212 13.8001 33.9016L14.2382 37.4239H11.9017H9.49219L13.289 41.0195L17.0858 44.6885L17.5601 41.2213C17.8522 39.3134 18.2721 36.3232 18.7101 35.4426C19.1668 33.9016 19.5501 34.2869 16.8668 36.2131L15.3334 37.3689L14.9683 33.8283C14.3842 29.4988 15.9175 21.3536 18.108 17.0976C20.3715 12.6214 25.1175 6.89774 29.1334 3.88915C32.4922 1.39422 33.5874 0 32.2001 0C31.908 0 30.2287 1.24746 28.4032 2.71507Z" fill="white"/>
</svg>
