<svg class="arrow" width="60" height="61" viewBox="0 0 60 61" fill="none" xmlns="http://www.w3.org/2000/svg"><path d="M37.0476 3.52381C23.2381 14.7619 16.2857 29.619 18 44L18.5714 48.5714H15.5238H12.381L17.3333 53.2381L22.2857 58L22.9044 53.5C23.2853 51.0238 23.833 47.1429 24.4044 46C25 44 25.5 44.5 22 47L20 48.5L19.5238 43.9048C18.7619 38.2857 20.7619 27.7143 23.619 22.1905C26.5714 16.381 32.7619 8.95238 38 5.04762C42.381 1.80952 43.8095 0 42 0C41.619 0 39.4286 1.61905 37.0476 3.52381Z" fill="black"/></svg>